<?xml version="1.0" encoding="UTF-8" standalone="no"?>
<!-- Created with Inkscape (http://www.inkscape.org/) -->

<svg
   xmlns:dc="http://purl.org/dc/elements/1.1/"
   xmlns:cc="http://creativecommons.org/ns#"
   xmlns:rdf="http://www.w3.org/1999/02/22-rdf-syntax-ns#"
   xmlns:svg="http://www.w3.org/2000/svg"
   xmlns="http://www.w3.org/2000/svg"
   xmlns:sodipodi="http://sodipodi.sourceforge.net/DTD/sodipodi-0.dtd"
   xmlns:inkscape="http://www.inkscape.org/namespaces/inkscape"
   width="256mm"
   height="256mm"
   viewBox="0 0 256 256"
   version="1.1"
   id="svg8"
   inkscape:version="0.92.2 (5c3e80d, 2017-08-06)"
   sodipodi:docname="dll-injector.svg">
  <defs
     id="defs2" />
  <sodipodi:namedview
     id="base"
     pagecolor="#ffffff"
     bordercolor="#666666"
     borderopacity="1.0"
     inkscape:pageopacity="0.0"
     inkscape:pageshadow="2"
     inkscape:zoom="0.49497476"
     inkscape:cx="226.82534"
     inkscape:cy="420.19844"
     inkscape:document-units="mm"
     inkscape:current-layer="layer1"
     showgrid="false"
     inkscape:window-width="1920"
     inkscape:window-height="1027"
     inkscape:window-x="1912"
     inkscape:window-y="-8"
     inkscape:window-maximized="1" />
  <metadata
     id="metadata5">
    <rdf:RDF>
      <cc:Work
         rdf:about="">
        <dc:format>image/svg+xml</dc:format>
        <dc:type
           rdf:resource="http://purl.org/dc/dcmitype/StillImage" />
        <dc:title />
      </cc:Work>
    </rdf:RDF>
  </metadata>
  <g
     inkscape:label="Ebene 1"
     inkscape:groupmode="layer"
     id="layer1"
     transform="translate(0,-41)">
    <g
       id="layer1-1"
       inkscape:label="Ebene 1"
       transform="matrix(0.84992529,0.35194838,-0.35194838,0.8499253,78.688839,-19.686764)">
      <path
         inkscape:connector-curvature="0"
         id="rect1366"
         d="m 128.00001,66.600001 c -56.729609,0 -102.399958,45.670339 -102.399958,102.399929 0,56.7296 45.670349,102.39995 102.399958,102.39995 56.7296,0 102.39995,-45.67035 102.39995,-102.39995 0,-56.72959 -45.67035,-102.399929 -102.39995,-102.399929 z m 0,38.400119 c 35.45599,0 64.00021,28.54382 64.00021,63.99981 0,35.456 -28.54422,64.00021 -64.00021,64.00021 -35.45601,0 -63.999822,-28.54421 -63.999822,-64.00021 0,-35.45599 28.543812,-63.99981 63.999822,-63.99981 z"
         style="fill:#696969;fill-opacity:1;stroke-width:0.21166666" />
      <rect
         ry="17.066664"
         rx="17.066666"
         y="41"
         x="102.40005"
         height="51.199993"
         width="51.199997"
         id="rect1384"
         style="fill:#696969;fill-opacity:1;stroke-width:0.23895456" />
      <rect
         transform="scale(-1)"
         ry="17.066666"
         rx="17.066668"
         y="-297"
         x="-153.59993"
         height="51.199982"
         width="51.199997"
         id="rect1384-6"
         style="fill:#696969;fill-opacity:1;stroke-width:0.23895456" />
      <path
         id="rect1366-7"
         d="m 230.40001,168.99999 c 0,-56.7296 -45.67037,-102.399936 -102.39995,-102.399936 -56.729614,0 -102.399966,45.670336 -102.399966,102.399936 0,56.72959 45.670352,102.39994 102.399966,102.39994 56.72958,0 102.39995,-45.67035 102.39995,-102.39994 z m -38.40013,0 c 0,35.45599 -28.54382,64.00021 -63.99982,64.00021 -35.45601,0 -64.000239,-28.54422 -64.000239,-64.00021 0,-35.456 28.544229,-63.99983 64.000239,-63.99983 35.456,0 63.99982,28.54383 63.99982,63.99983 z"
         style="fill:#696969;fill-opacity:1;stroke-width:0.21166666"
         inkscape:connector-curvature="0" />
      <rect
         transform="rotate(90)"
         ry="17.066668"
         rx="17.066666"
         y="-256"
         x="143.40005"
         height="51.199997"
         width="51.199993"
         id="rect1384-0"
         style="fill:#696969;fill-opacity:1;stroke-width:0.23895456" />
      <rect
         transform="rotate(-90)"
         ry="17.066668"
         rx="17.066666"
         y="1.1915417e-014"
         x="-194.59995"
         height="51.199986"
         width="51.199993"
         id="rect1384-6-1"
         style="fill:#696969;fill-opacity:1;stroke-width:0.23895456" />
      <path
         id="rect1366-7-2"
         d="m 200.40776,241.40772 c 40.11388,-40.11388 40.11388,-104.70151 0,-144.815379 -40.11389,-40.113887 -104.70153,-40.113891 -144.815422,0 -40.113885,40.113869 -40.113883,104.701499 8e-6,144.815379 40.113884,40.11389 104.701524,40.11389 144.815414,0 z m -27.153,-27.15298 c -25.07118,25.07116 -65.43852,25.07146 -90.509706,2.8e-4 -25.071185,-25.07119 -25.071185,-65.43882 -7e-6,-90.50998 25.071183,-25.071165 65.438533,-25.070889 90.509713,2.8e-4 25.07118,25.07118 25.07117,65.43824 0,90.50942 z"
         style="fill:#696969;fill-opacity:1;stroke-width:0.21166666"
         inkscape:connector-curvature="0" />
      <rect
         transform="rotate(135)"
         ry="17.066666"
         rx="17.066666"
         y="-338.01062"
         x="3.3914299"
         height="51.199997"
         width="51.199997"
         id="rect1384-0-8"
         style="fill:#696969;fill-opacity:1;stroke-width:0.23895457" />
      <rect
         transform="rotate(-44.999998)"
         ry="17.066666"
         rx="17.066666"
         y="82.010719"
         x="-54.59132"
         height="51.199989"
         width="51.199997"
         id="rect1384-6-1-7"
         style="fill:#696969;fill-opacity:1;stroke-width:0.23895457" />
      <path
         id="rect1366-7-5"
         d="m 55.592256,241.40772 c 40.113894,40.1139 104.701534,40.11389 144.815414,0 40.1139,-40.11388 40.1139,-104.7015 0,-144.815379 C 160.29379,56.478462 95.70615,56.478462 55.592262,96.592352 15.478378,136.70621 15.478374,201.29385 55.592256,241.40772 Z m 27.153003,-27.15298 c -25.07118,-25.07118 -25.071467,-65.43852 -2.9e-4,-90.5097 25.071201,-25.071165 65.438811,-25.071165 90.510001,0 25.07118,25.07116 25.07088,65.43852 -3.1e-4,90.5097 -25.07116,25.07116 -65.43823,25.07116 -90.509401,0 z"
         style="fill:#696969;fill-opacity:1;stroke-width:0.21166666"
         inkscape:connector-curvature="0" />
      <rect
         transform="rotate(-135)"
         ry="17.066666"
         rx="17.066666"
         y="-156.99136"
         x="-235.61066"
         height="51.199997"
         width="51.199997"
         id="rect1384-0-3"
         style="fill:#696969;fill-opacity:1;stroke-width:0.23895457" />
      <rect
         transform="rotate(44.999998)"
         ry="17.066666"
         rx="17.066666"
         y="-99.008591"
         x="184.4108"
         height="51.199989"
         width="51.199997"
         id="rect1384-6-1-1"
         style="fill:#696969;fill-opacity:1;stroke-width:0.23895457" />
    </g>
    <g
       transform="matrix(1.0054564,1.0297217,-1.0054564,1.0297217,155.22722,-119.40408)"
       id="layer1-7"
       inkscape:label="Ebene 1">
      <path
         inkscape:connector-curvature="0"
         id="rect815-12"
         d="m 84.00004,101.01133 c -3.324,0 -6.000152,2.67564 -6.000152,5.99964 0,3.324 2.676152,6.00015 6.000152,6.00015 h 6.000149 8.000029 v 96.20395 c -0.0194,0.19686 -0.01911,0.39485 5.16e-4,0.5917 0.002,0.46687 0.160769,0.90103 0.433049,1.27227 0.12078,0.19556 0.263128,0.38148 0.433049,0.55139 l 26.133288,26.13329 v 41.62123 l 5.99963,-10.39162 v -31.27974 l 26.10694,-26.08316 c 0.11361,-0.1135 0.21271,-0.23564 0.30437,-0.36122 0.36861,-0.4108 0.58911,-0.91775 0.58911,-1.4702 v -96.78789 h 8.00003 5.99963 c 3.324,0 6.00016,-2.67615 6.00016,-6.00015 0,-3.324 -2.67616,-5.99964 -6.00016,-5.99964 H 166.0002 90.000189 Z m 19.99981,11.99979 h 48.00017 v 95.23605 l -24.02644,24.00474 -23.97373,-23.97373 z"
         style="fill:#2a2a2a;fill-opacity:1;stroke-width:0.04824588" />
      <path
         inkscape:connector-curvature="0"
         id="rect815-7-39"
         d="m 101.09254,57.240354 c -3.375143,0 -6.092654,2.67615 -6.092654,6.00015 0,3.324 2.717511,6.000151 6.092654,6.000151 H 110 v 26.149824 h 6.00015 V 69.240655 h 24.00009 v 26.149824 h 5.99963 V 69.240655 h 8.90799 c 3.37513,0 6.09213,-2.676151 6.09213,-6.000151 0,-3.324 -2.717,-6.00015 -6.09213,-6.00015 z"
         style="fill:#2a2a2a;fill-opacity:1;stroke-width:0.05519246" />
      <path
         id="rect1046-7"
         d="m 140.41103,119.0281 -30.41106,30.41105 v 5.41104 h 19.76262 c 1.26171,0 2.27789,1.11459 2.27789,2.49958 0,1.385 -1.01618,2.5001 -2.27789,2.5001 h -19.76262 v 15.00011 h 12.76253 c 1.26171,0 2.27738,1.1151 2.27738,2.50011 0,1.385 -1.01567,2.5001 -2.27738,2.5001 h -12.76253 v 14.99959 h 19.76262 c 1.26171,0 2.27789,1.11511 2.27789,2.50011 0,1.385 -1.01618,2.5001 -2.27789,2.5001 h -19.76262 v 5.64151 l 17.98133,17.98132 18.01854,-18.01853 V 119.0281 Z"
         style="fill:#b91919;fill-opacity:1;stroke-width:0.30149055"
         inkscape:connector-curvature="0" />
    </g>
  </g>
</svg>
