<?xml version="1.0" encoding="UTF-8" standalone="no"?>
<!-- Created with Inkscape (http://www.inkscape.org/) -->

<svg
   xmlns:dc="http://purl.org/dc/elements/1.1/"
   xmlns:cc="http://creativecommons.org/ns#"
   xmlns:rdf="http://www.w3.org/1999/02/22-rdf-syntax-ns#"
   xmlns:svg="http://www.w3.org/2000/svg"
   xmlns="http://www.w3.org/2000/svg"
   xmlns:sodipodi="http://sodipodi.sourceforge.net/DTD/sodipodi-0.dtd"
   xmlns:inkscape="http://www.inkscape.org/namespaces/inkscape"
   width="256mm"
   height="256mm"
   viewBox="0 0 256 256"
   version="1.1"
   id="svg8"
   inkscape:version="0.92.2 (5c3e80d, 2017-08-06)"
   sodipodi:docname="syringe.svg">
  <defs
     id="defs2" />
  <sodipodi:namedview
     id="base"
     pagecolor="#ffffff"
     bordercolor="#666666"
     borderopacity="1.0"
     inkscape:pageopacity="0.0"
     inkscape:pageshadow="2"
     inkscape:zoom="0.49497475"
     inkscape:cx="450.93148"
     inkscape:cy="490.03712"
     inkscape:document-units="mm"
     inkscape:current-layer="layer1"
     showgrid="false"
     inkscape:window-width="1920"
     inkscape:window-height="1027"
     inkscape:window-x="1912"
     inkscape:window-y="-8"
     inkscape:window-maximized="1" />
  <metadata
     id="metadata5">
    <rdf:RDF>
      <cc:Work
         rdf:about="">
        <dc:format>image/svg+xml</dc:format>
        <dc:type
           rdf:resource="http://purl.org/dc/dcmitype/StillImage" />
        <dc:title />
      </cc:Work>
    </rdf:RDF>
  </metadata>
  <g
     inkscape:label="Ebene 1"
     inkscape:groupmode="layer"
     id="layer1"
     transform="translate(0,-41)">
    <path
       style="fill:#2a2a2a;fill-opacity:1;stroke-width:0.04824588"
       d="m 84.00004,101.01133 c -3.324,0 -6.000152,2.67564 -6.000152,5.99964 0,3.324 2.676152,6.00015 6.000152,6.00015 h 6.000149 8.000029 v 96.20395 c -0.0194,0.19686 -0.01911,0.39485 5.16e-4,0.5917 0.002,0.46687 0.160769,0.90103 0.433049,1.27227 0.12078,0.19556 0.263128,0.38148 0.433049,0.55139 l 26.133288,26.13329 v 41.62123 l 5.99963,-10.39162 v -31.27974 l 26.10694,-26.08316 c 0.11361,-0.1135 0.21271,-0.23564 0.30437,-0.36122 0.36861,-0.4108 0.58911,-0.91775 0.58911,-1.4702 v -96.78789 h 8.00003 5.99963 c 3.324,0 6.00016,-2.67615 6.00016,-6.00015 0,-3.324 -2.67616,-5.99964 -6.00016,-5.99964 H 166.0002 90.000189 Z m 19.99981,11.99979 h 48.00017 v 95.23605 l -24.02644,24.00474 -23.97373,-23.97373 z"
       id="rect815-12"
       inkscape:connector-curvature="0" />
    <path
       style="fill:#2a2a2a;fill-opacity:1;stroke-width:0.05519246"
       d="m 101.09254,57.240354 c -3.375143,0 -6.092654,2.67615 -6.092654,6.00015 0,3.324 2.717511,6.000151 6.092654,6.000151 H 110 v 26.149824 h 6.00015 V 69.240655 h 24.00009 v 26.149824 h 5.99963 V 69.240655 h 8.90799 c 3.37513,0 6.09213,-2.676151 6.09213,-6.000151 0,-3.324 -2.717,-6.00015 -6.09213,-6.00015 z"
       id="rect815-7-39"
       inkscape:connector-curvature="0" />
    <path
       inkscape:connector-curvature="0"
       style="fill:#b91919;fill-opacity:1;stroke-width:0.30149055"
       d="m 140.41103,119.0281 -30.41106,30.41105 v 5.41104 h 19.76262 c 1.26171,0 2.27789,1.11459 2.27789,2.49958 0,1.385 -1.01618,2.5001 -2.27789,2.5001 h -19.76262 v 15.00011 h 12.76253 c 1.26171,0 2.27738,1.1151 2.27738,2.50011 0,1.385 -1.01567,2.5001 -2.27738,2.5001 h -12.76253 v 14.99959 h 19.76262 c 1.26171,0 2.27789,1.11511 2.27789,2.50011 0,1.385 -1.01618,2.5001 -2.27789,2.5001 h -19.76262 v 5.64151 l 17.98133,17.98132 18.01854,-18.01853 V 119.0281 Z"
       id="rect1046-7" />
  </g>
</svg>
